# xmcd CD database file
#
# Track frame offsets:
#	150
#	18925
#	38975
#	55225
#	79300
#	92175
#	111475
#	132275
#	145697
#	157575
#	189050
#	204625
#	221887
#	231712
#	245025
#
# Disc length: 3626 seconds
#
# Revision: 0
# Processed by: cddbd v1.5.1PL2 Copyright (c) Steve Scherf et al.
# Submitted via: CDex 1.51
#
DISCID=d70e280f
DTITLE=Various Artist - Play Jazz! Christmas Blend
DYEAR=2005
DGENRE=Jazz
TTITLE0=Winter Wonderland /Shirley Horn
TTITLE1=Santa Claus Is Coming To Town /Bill Evans
TTITLE2=Christmas Time Is Here /Diana Krall
TTITLE3=Winter Moon /Stan Getz
TTITLE4=White Christmas /Jimmy Smith
TTITLE5=My Favorite Things /J. J. Johnson
TTITLE6=Let It Snow! Let It Snow! Let It Snow! /Joe Williams
TTITLE7=Have Yourself A Merry Little Christmas /Ella Fitzgerald
TTITLE8=A Child Is Born /Oscar Peterson
TTITLE9=Wintersong /Gerry Mulligan and Paul Desmond
TTITLE10=Merry Christmas, Baby /Kenny Burrell
TTITLE11=Greensleeves /John Coltrane
TTITLE12=Snowfall /Ramsey Louis
TTITLE13=Cool Yule /Louis Armstrong with The Commanders
TTITLE14=Baby, It's Cold Outside /Wes Montgomery and Jimmy Smith
EXTD=YEAR: 2005
EXTT0=
EXTT1=
EXTT2=
EXTT3=
EXTT4=
EXTT5=
EXTT6=
EXTT7=
EXTT8=
EXTT9=
EXTT10=
EXTT11=
EXTT12=
EXTT13=
EXTT14=
PLAYORDER=
